
<svg version="1.0" xmlns="http://www.w3.org/2000/svg"
 width="167.000000pt" height="167.000000pt" viewBox="0 0 167.000000 167.000000"
 preserveAspectRatio="xMidYMid meet">

<g transform="translate(0.000000,167.000000) scale(0.100000,-0.100000)"
fill="#FFF" stroke="none">
<path d="M1392 1567 c-214 -414 -422 -826 -422 -836 0 -8 44 -11 150 -11 l150
0 -2 -183 -3 -182 -248 -5 -247 -5 -26 -42 -25 -43 365 0 366 0 0 705 c0 388
-1 705 -2 705 -2 0 -27 -46 -56 -103z"/>
<path d="M190 703 l1 -708 102 200 c302 587 377 734 377 744 0 7 -49 11 -150
11 l-150 0 0 185 0 185 249 0 249 0 25 45 26 45 -365 0 -364 0 0 -707z"/>
</g>
</svg>
